  <svg class="icon icon--linkedin" width="17px" height="17px" viewBox="0 0 13 13" xmlns="http://www.w3.org/2000/svg" xmlns:xlink="http://www.w3.org/1999/xlink">
    <path d="M10.2916667,0 L2.70833333,0 C1.21279167,0 0,1.21279167 0,2.70833333 L0,10.2916667 C0,11.7872083 1.21279167,13 2.70833333,13 L10.2916667,13 C11.78775,13 13,11.7872083 13,10.2916667 L13,2.70833333 C13,1.21279167 11.78775,0 10.2916667,0 Z M4.33333333,10.2916667 L2.70833333,10.2916667 L2.70833333,4.33333333 L4.33333333,4.33333333 L4.33333333,10.2916667 Z M3.52083333,3.6465 C2.99758333,3.6465 2.57291667,3.21858333 2.57291667,2.691 C2.57291667,2.16341667 2.99758333,1.7355 3.52083333,1.7355 C4.04408333,1.7355 4.46875,2.16341667 4.46875,2.691 C4.46875,3.21858333 4.044625,3.6465 3.52083333,3.6465 Z M10.8333333,10.2916667 L9.20833333,10.2916667 L9.20833333,7.25616667 C9.20833333,5.43183333 7.04166667,5.56995833 7.04166667,7.25616667 L7.04166667,10.2916667 L5.41666667,10.2916667 L5.41666667,4.33333333 L7.04166667,4.33333333 L7.04166667,5.289375 C7.79783333,3.888625 10.8333333,3.78516667 10.8333333,6.63054167 L10.8333333,10.2916667 Z" fill="#000000" fill-rule="nonzero"></path>
</svg>